<svg width="44" height="64" viewBox="0 0 44 64" fill="none" xmlns="http://www.w3.org/2000/svg">
<path d="M22.0283 6.55383C22.0313 34.8215 21.9689 42.7519 6.14075 51.3205M21.9653 6.55383C21.964 34.8212 22.0269 42.7516 37.8546 51.3198M21.9666 57.5482L21.9666 6.55383C22.0278 33.7366 20.5268 45.5874 13.1203 55.8631M21.9875 6.55383C21.9263 33.6962 23.4272 45.5294 30.8336 55.7898" stroke="white" stroke-width="12" stroke-linecap="round"/>
<path d="M22.0283 6.55383C22.0313 34.8215 21.9689 42.7519 6.14075 51.3205M21.9653 6.55383C21.964 34.8212 22.0269 42.7516 37.8546 51.3198M21.9666 57.5482L21.9666 6.55383C22.0278 33.7366 20.5268 45.5874 13.1203 55.8631M21.9875 6.55383C21.9263 33.6962 23.4272 45.5294 30.8336 55.7898" stroke="black" stroke-width="5" stroke-linecap="round"/>
</svg>
