<svg width="168" height="36" viewBox="0 0 168 36" fill="none" xmlns="http://www.w3.org/2000/svg">
<path d="M8.47734 6C8.47875 19.3039 8.44936 23.0363 1 27.069M8.44769 6C8.44708 19.3038 8.47668 23.0361 15.9258 27.0687M8.44828 30L8.44828 6C8.47709 18.7933 7.77066 24.3708 4.28488 29.2069M8.45812 6C8.42931 18.7743 9.13571 24.3435 12.6214 29.1724" stroke="black" stroke-width="2" stroke-linecap="round"/>
<rect x="24.9258" y="1" width="142" height="34" rx="17" stroke="black" stroke-width="2"/>
<path d="M43.6378 7.68C44.9604 7.68 46.0964 7.872 47.0458 8.256C47.9951 8.62933 48.7151 9.168 49.2058 9.872C49.7071 10.576 49.9578 11.4133 49.9578 12.384V12.656H47.9258V12.448C47.9258 11.4027 47.5364 10.6293 46.7578 10.128C45.9898 9.62667 44.9444 9.376 43.6218 9.376C40.9018 9.376 39.4991 10.304 39.4138 12.16H41.2058V13.888H39.4298V24H37.3658V13.888H35.5898V12.16H37.3658C37.4191 10.7093 37.9844 9.6 39.0618 8.832C40.1498 8.064 41.6751 7.68 43.6378 7.68ZM51.9033 12.16V13.888H50.1433V24H48.1273V21.472C47.8499 21.888 47.4766 22.2133 47.0073 22.448C46.5486 22.6827 46.0206 22.8 45.4233 22.8C44.6979 22.8 44.0579 22.64 43.5033 22.32C42.9593 21.9893 42.5379 21.536 42.2393 20.96C41.9513 20.384 41.8073 19.7227 41.8073 18.976C41.8073 18.2613 41.9566 17.6213 42.2553 17.056C42.5539 16.4907 42.9753 16.0533 43.5193 15.744C44.0739 15.424 44.7086 15.264 45.4233 15.264C46.0313 15.264 46.5646 15.3813 47.0233 15.616C47.4819 15.8507 47.8499 16.176 48.1273 16.592V13.888H40.5273V12.16H51.9033ZM45.9673 21.152C46.4259 21.152 46.8153 21.0507 47.1353 20.848C47.4659 20.6453 47.7113 20.384 47.8713 20.064C48.0419 19.744 48.1273 19.408 48.1273 19.056V19.04C48.1273 18.464 47.9353 17.968 47.5513 17.552C47.1779 17.136 46.6499 16.928 45.9673 16.928C45.3486 16.928 44.8366 17.12 44.4313 17.504C44.0366 17.888 43.8393 18.3947 43.8393 19.024C43.8393 19.664 44.0366 20.1813 44.4313 20.576C44.8366 20.96 45.3486 21.152 45.9673 21.152ZM60.494 13.888V16.656C60.7287 16.2507 61.054 15.9307 61.47 15.696C61.8967 15.4507 62.398 15.328 62.974 15.328C63.6354 15.328 64.2114 15.488 64.702 15.808C65.2034 16.128 65.5874 16.5653 65.854 17.12C66.1207 17.6747 66.254 18.2987 66.254 18.992C66.254 19.7493 66.11 20.4053 65.822 20.96C65.5447 21.504 65.1554 21.92 64.654 22.208C64.1527 22.496 63.582 22.64 62.942 22.64C62.5687 22.64 62.2167 22.6027 61.886 22.528V20.896C62.014 20.9387 62.1794 20.96 62.382 20.96C62.9047 20.96 63.3314 20.7893 63.662 20.448C63.9927 20.1067 64.158 19.6373 64.158 19.04C64.158 18.4747 63.9874 18.0107 63.646 17.648C63.3047 17.2853 62.8674 17.104 62.334 17.104C61.7367 17.104 61.2834 17.3067 60.974 17.712C60.6754 18.1173 60.5154 18.608 60.494 19.184V24H58.51V21.296C58.4247 21.4453 58.3287 21.5733 58.222 21.68L55.422 24.736H53.198L55.278 22.544C54.4567 22.416 53.79 22.0373 53.278 21.408C52.7767 20.768 52.526 19.9787 52.526 19.04C52.526 18.304 52.6647 17.6587 52.942 17.104C53.23 16.5387 53.63 16.1013 54.142 15.792C54.6647 15.4827 55.2674 15.328 55.95 15.328C56.5474 15.328 57.0594 15.4453 57.486 15.68C57.9127 15.904 58.254 16.2187 58.51 16.624V13.888H51.246V12.16H67.518V13.888H60.494ZM56.558 21.04C56.974 21.04 57.326 20.944 57.614 20.752C57.9127 20.56 58.1367 20.3147 58.286 20.016C58.4354 19.7067 58.51 19.3867 58.51 19.056C58.51 18.5227 58.3394 18.064 57.998 17.68C57.6674 17.2853 57.1927 17.088 56.574 17.088C56.0194 17.088 55.5554 17.2693 55.182 17.632C54.8087 17.9947 54.622 18.4693 54.622 19.056C54.622 19.6533 54.8034 20.1333 55.166 20.496C55.5287 20.8587 55.9927 21.04 56.558 21.04ZM72.4714 12.16V13.888H70.6954V24H68.6314V13.888H66.8554V12.16H68.6954C68.2261 11.4347 67.8421 10.912 67.5434 10.592C67.2554 10.2613 66.9621 10.048 66.6634 9.952C66.3647 9.84533 65.9541 9.792 65.4314 9.792H64.6474V8.112H65.3834C66.2367 8.12267 66.9087 8.21333 67.3994 8.384C67.9007 8.55467 68.3914 8.92267 68.8714 9.488C69.3621 10.0427 69.9594 10.9333 70.6634 12.16H72.4714ZM84.4165 13.888V15.728C85.1312 15.9627 85.7072 16.3893 86.1445 17.008C86.5819 17.6267 86.8005 18.368 86.8005 19.232C86.8005 19.9573 86.6405 20.5973 86.3205 21.152C86.0005 21.7067 85.5632 22.1387 85.0085 22.448C84.4539 22.7467 83.8352 22.896 83.1525 22.896C82.4059 22.896 81.7499 22.72 81.1845 22.368C80.6299 22.0053 80.2245 21.5147 79.9685 20.896H79.9045C79.6592 21.5147 79.2539 22.0053 78.6885 22.368C78.1339 22.72 77.4832 22.896 76.7365 22.896C76.0539 22.896 75.4352 22.7467 74.8805 22.448C74.3259 22.1387 73.8885 21.7067 73.5685 21.152C73.2485 20.5973 73.0885 19.9573 73.0885 19.232C73.0885 18.496 73.2485 17.8453 73.5685 17.28C73.8885 16.7147 74.3259 16.2827 74.8805 15.984C75.4352 15.6747 76.0485 15.52 76.7205 15.52C77.4352 15.52 78.0645 15.6907 78.6085 16.032C79.1525 16.3627 79.5899 16.848 79.9205 17.488H79.9685C80.4912 16.432 81.3072 15.7973 82.4165 15.584V13.888H71.8085V12.16H88.0645V13.888H84.4165ZM77.0245 21.136C77.5899 21.136 78.0485 20.96 78.4005 20.608C78.7525 20.2453 78.9285 19.7867 78.9285 19.232C78.9285 18.656 78.7525 18.1867 78.4005 17.824C78.0485 17.4613 77.5899 17.28 77.0245 17.28C76.4592 17.28 75.9952 17.4613 75.6325 17.824C75.2805 18.1867 75.1045 18.6613 75.1045 19.248C75.1045 19.8133 75.2859 20.272 75.6485 20.624C76.0112 20.9653 76.4699 21.136 77.0245 21.136ZM82.8485 21.136C83.4139 21.136 83.8725 20.9653 84.2245 20.624C84.5872 20.272 84.7685 19.8133 84.7685 19.248C84.7685 18.6613 84.5925 18.1867 84.2405 17.824C83.8885 17.4613 83.4299 17.28 82.8645 17.28C82.2992 17.28 81.8405 17.4613 81.4885 17.824C81.1365 18.1867 80.9605 18.656 80.9605 19.232C80.9605 19.7973 81.1365 20.256 81.4885 20.608C81.8405 20.96 82.2939 21.136 82.8485 21.136ZM93.0183 12.16V13.888H91.2423V24H89.1783V13.888H87.4023V12.16H89.2423V11.52C89.2423 10.944 89.1356 10.4587 88.9223 10.064C88.7089 9.65867 88.3196 9.456 87.7543 9.456C87.1783 9.456 86.7836 9.65867 86.5703 10.064C86.3463 10.4587 86.2343 10.944 86.2343 11.52V12.624H84.2343V11.632C84.2343 10.4267 84.5169 9.472 85.0823 8.768C85.6369 8.064 86.5276 7.712 87.7543 7.712C90.0796 7.712 91.2423 9.01867 91.2423 11.632V12.16H93.0183ZM104.244 13.888H102.484V24H100.404V17.872H98.2758C97.4864 17.872 96.8624 18.064 96.4038 18.448C95.9451 18.832 95.7158 19.3813 95.7158 20.096C95.7158 20.8 95.9184 21.3547 96.3238 21.76C96.7291 22.1547 97.3211 22.352 98.0998 22.352H98.4198V23.968H97.7798C96.5424 23.968 95.5398 23.6373 94.7718 22.976C94.0038 22.3147 93.6198 21.3387 93.6198 20.048C93.6198 18.7253 94.0411 17.7387 94.8838 17.088C95.7264 16.4267 96.8251 16.096 98.1798 16.096H100.404V13.888H92.3398V12.16H104.244V13.888ZM116.298 7.648C118.698 7.648 120.506 8.06933 121.722 8.912C122.938 9.744 123.546 10.9173 123.546 12.432V12.704H121.514V12.48C121.514 10.3893 119.765 9.344 116.266 9.344C114.602 9.344 113.354 9.56267 112.522 10C111.701 10.4373 111.269 11.1573 111.226 12.16H113.018V13.888H111.242V24H109.178V13.888H107.402V12.16H109.178C109.296 9.152 111.669 7.648 116.298 7.648ZM125.972 13.888H124.196V24H122.132V17.744H119.716C120.089 18.256 120.276 18.8693 120.276 19.584C120.276 20.2133 120.132 20.7573 119.844 21.216C119.556 21.6747 119.161 22.0213 118.66 22.256C118.169 22.4907 117.62 22.608 117.012 22.608C116.372 22.608 115.79 22.4747 115.268 22.208C114.745 21.9413 114.329 21.5627 114.02 21.072C113.71 20.5707 113.556 19.984 113.556 19.312C113.556 18.608 113.716 18.0107 114.036 17.52C114.356 17.0187 114.788 16.6453 115.332 16.4C115.886 16.144 116.505 16.016 117.188 16.016H122.132V13.888H112.34V12.16H125.972V13.888ZM117.044 20.864C117.502 20.864 117.881 20.72 118.18 20.432C118.478 20.1333 118.628 19.7547 118.628 19.296C118.628 18.848 118.478 18.48 118.18 18.192C117.881 17.8933 117.502 17.744 117.044 17.744C116.564 17.744 116.169 17.8933 115.86 18.192C115.561 18.48 115.412 18.8533 115.412 19.312C115.412 19.7707 115.561 20.144 115.86 20.432C116.169 20.72 116.564 20.864 117.044 20.864ZM134.621 7.632C137.224 7.632 139.154 8.05333 140.413 8.896C141.682 9.728 142.317 10.9173 142.317 12.464V12.72H140.285V12.496C140.285 11.4187 139.81 10.624 138.861 10.112C137.922 9.58933 136.493 9.328 134.573 9.328C132.728 9.328 131.368 9.552 130.493 10C129.618 10.4373 129.16 11.1573 129.117 12.16H130.909V13.888H129.133V24H127.069V13.888H125.293V12.16H127.069C127.122 10.656 127.757 9.52533 128.973 8.768C130.2 8.01067 132.082 7.632 134.621 7.632ZM144.038 13.888H142.262V24H140.182V18.32H137.798V19.264C137.798 20.3733 137.516 21.2373 136.95 21.856C136.396 22.4747 135.596 22.784 134.55 22.784C133.558 22.784 132.758 22.5013 132.15 21.936C131.553 21.3707 131.254 20.624 131.254 19.696C131.254 18.7147 131.569 17.9627 132.198 17.44C132.838 16.9067 133.66 16.64 134.662 16.64H135.878V13.888H130.23V12.16H144.038V13.888ZM140.182 13.888H137.798V16.64H140.182V13.888ZM135.878 18.32H134.726C134.257 18.32 133.878 18.4427 133.59 18.688C133.313 18.9227 133.174 19.2533 133.174 19.68C133.174 20.096 133.297 20.4267 133.542 20.672C133.798 20.9173 134.124 21.04 134.518 21.04C134.945 21.04 135.276 20.8907 135.51 20.592C135.756 20.2933 135.878 19.888 135.878 19.376V18.32ZM140.876 12.16V10.88C140.876 10.016 141.1 9.30133 141.548 8.736C141.996 8.16 142.658 7.872 143.532 7.872C144.343 7.872 144.967 8.128 145.404 8.64C145.842 9.152 146.044 9.84 146.012 10.704H144.188C144.199 10.3307 144.124 10.0427 143.964 9.84C143.804 9.62667 143.58 9.52 143.292 9.52C142.983 9.52 142.743 9.64267 142.572 9.888C142.402 10.1333 142.316 10.4907 142.316 10.96V12.16H140.876ZM155.291 13.888H153.531V24H151.451V17.872H149.323C148.533 17.872 147.909 18.064 147.451 18.448C146.992 18.832 146.763 19.3813 146.763 20.096C146.763 20.8 146.965 21.3547 147.371 21.76C147.776 22.1547 148.368 22.352 149.147 22.352H149.467V23.968H148.827C147.589 23.968 146.587 23.6373 145.819 22.976C145.051 22.3147 144.667 21.3387 144.667 20.048C144.667 18.7253 145.088 17.7387 145.931 17.088C146.773 16.4267 147.872 16.096 149.227 16.096H151.451V13.888H143.387V12.16H155.291V13.888Z" fill="black"/>
</svg>
