<svg width="22" height="16" viewBox="0 0 22 16" fill="none" xmlns="http://www.w3.org/2000/svg">
<path d="M18.1743 1.34C16.8364 0.714 15.4058 0.259052 13.9101 0C13.7264 0.332095 13.5118 0.77877 13.3639 1.1341C11.7739 0.894993 10.1986 0.894993 8.63796 1.1341C8.49003 0.77877 8.27056 0.332095 8.08523 0C6.58796 0.259052 5.15571 0.715671 3.81775 1.34331C1.11908 5.42136 0.387517 9.39811 0.7533 13.3184C2.5432 14.655 4.27783 15.467 5.98318 15.9984C6.40424 15.4189 6.77977 14.8028 7.10328 14.1536C6.48715 13.9195 5.89702 13.6306 5.33942 13.2952C5.48735 13.1856 5.63205 13.071 5.77184 12.9531C9.17281 14.5438 12.868 14.5438 16.2284 12.9531C16.3698 13.071 16.5145 13.1856 16.6608 13.2952C16.1016 13.6322 15.5098 13.9211 14.8937 14.1553C15.2172 14.8028 15.5911 15.4205 16.0138 16C17.7208 15.4687 19.457 14.6567 21.2469 13.3184C21.6761 8.77378 20.5137 4.83355 18.1743 1.34ZM7.56662 10.9075C6.54568 10.9075 5.70843 9.95435 5.70843 8.7937C5.70843 7.63305 6.52781 6.67831 7.56662 6.67831C8.60546 6.67831 9.44268 7.63138 9.4248 8.7937C9.42642 9.95435 8.60546 10.9075 7.56662 10.9075ZM14.4336 10.9075C13.4127 10.9075 12.5754 9.95435 12.5754 8.7937C12.5754 7.63305 13.3948 6.67831 14.4336 6.67831C15.4724 6.67831 16.3097 7.63138 16.2918 8.7937C16.2918 9.95435 15.4724 10.9075 14.4336 10.9075Z" fill="#5865F2"/>
</svg>
