<svg width="26" height="29" viewBox="0 0 26 29" fill="none" xmlns="http://www.w3.org/2000/svg">
<path d="M3.13312 25.224L3.06241 25.1533L7.21576 20.9998L3.06244 16.8466C2.84588 16.63 2.84588 16.2789 3.06241 16.0624C3.27897 15.8458 3.63012 15.8458 3.84666 16.0623L8.3921 20.6077C8.3921 20.6077 8.3921 20.6077 8.39211 20.6077C8.49614 20.7117 8.55455 20.8528 8.55455 20.9998C8.55455 21.1469 8.49614 21.2879 8.39211 21.3919L8.3921 21.3919M3.13312 25.224L8.3214 21.3212L8.3921 21.3919M3.13312 25.224L3.06241 25.1533C2.84588 25.3699 2.84588 25.721 3.06244 25.9375M3.13312 25.224L3.84668 25.9375C3.73841 26.0458 3.59631 26.0999 3.45455 26.0999C3.3128 26.0999 3.17069 26.0458 3.06244 25.9375M8.3921 21.3919L3.8467 25.9375L8.3921 21.3919ZM3.06244 25.9375L3.13315 25.8668L3.06243 25.9375C3.06244 25.9375 3.06244 25.9375 3.06244 25.9375ZM25.78 16.0599H25.68H21.84H21.74V16.1599V21.5959H18.894C18.7194 21.4824 18.5392 21.3945 18.3537 21.3326C18.8142 21.1486 19.1832 20.8683 19.457 20.4906L19.4577 20.4897C19.7801 20.0338 19.94 19.5012 19.94 18.8959C19.94 17.9957 19.6313 17.2684 19.0099 16.7247C18.3903 16.1825 17.5756 15.9159 16.576 15.9159C15.8911 15.9159 15.2784 16.0464 14.74 16.3101L14.7393 16.3105C14.2108 16.5747 13.7965 16.9556 13.4985 17.452C13.1999 17.9389 13.052 18.5013 13.052 19.1359V19.2359H13.152H15.056H15.156V19.1359C15.156 18.7575 15.289 18.4546 15.5545 18.2187C15.8217 17.9811 16.1596 17.8599 16.576 17.8599C16.957 17.8599 17.2669 17.9842 17.5133 18.2306L17.5132 18.2307L17.5162 18.2334C17.7702 18.4679 17.9 18.7811 17.9 19.1839C17.9 19.5394 17.7681 19.8383 17.5001 20.0865C17.2356 20.3314 16.8627 20.4599 16.368 20.4599H15.68H15.58V20.5599V22.2239V22.3239H15.68H16.368C16.9377 22.3239 17.3503 22.4738 17.6241 22.7574L17.6241 22.7574L17.6253 22.7586C17.9045 23.0378 18.044 23.3801 18.044 23.7919C18.044 24.2171 17.9134 24.5589 17.6566 24.8259C17.4021 25.08 17.0514 25.2119 16.592 25.2119C16.1339 25.2119 15.7711 25.0754 15.4941 24.8086C15.2158 24.53 15.076 24.1828 15.076 23.7599V23.6599H14.976H13.04H12.94V23.7599C12.94 24.4272 13.0988 25.0267 13.4184 25.5556L13.4189 25.5564C13.7385 26.0744 14.1849 26.4762 14.7553 26.7614L14.756 26.7617C15.337 27.0467 15.9977 27.1879 16.736 27.1879C17.748 27.1879 18.5692 26.899 19.1888 26.3125C19.8089 25.7256 20.116 24.9458 20.116 23.9839C20.116 23.8235 20.1052 23.6598 20.0836 23.4929L21.74 23.5071V27.9999V28.0999H21.84H23.904H24.004V27.9999V17.9879H25.68H25.78V17.8879V16.1599V16.0599ZM2.76802 12.0999H2.83924L2.86252 12.0326L3.57524 9.97192H7.88079L8.59351 12.0326L8.61679 12.0999H8.68802H11.056H11.1982L11.1501 11.9661L7.13413 0.782122L7.11036 0.715918H7.04002H4.43202H4.36167L4.3379 0.782122L0.321899 11.9661L0.273856 12.0999H0.416016H2.76802ZM4.25242 7.97992L5.72802 3.71383L7.20361 7.97992H4.25242ZM21.3922 2.84656L21.3219 2.77623L21.3215 2.13303L21.3922 2.06233C21.3922 2.06233 21.3922 2.06232 21.3922 2.06232C21.2839 1.95404 21.1418 1.89991 21.0001 1.89991C20.8583 1.89991 20.7162 1.95405 20.6079 2.06236L16.0625 6.60791C16.0625 6.60792 16.0625 6.60792 16.0625 6.60792C15.9585 6.71193 15.9001 6.85297 15.9001 7.00003C15.9001 7.14708 15.9585 7.28816 16.0625 7.39216C16.0625 7.39217 16.0625 7.39217 16.0625 7.39218L20.608 11.9375C20.8245 12.1541 21.1756 12.1541 21.3922 11.9375C21.6087 11.7209 21.6087 11.3698 21.3922 11.1532L17.2389 7L21.3922 2.84656Z" fill="white" stroke="white" stroke-width="0.2"/>
</svg>
