<svg width="44" height="64" viewBox="0 0 44 64" fill="none" xmlns="http://www.w3.org/2000/svg">
<path d="M21.8876 6.67578C21.8906 34.9435 21.8282 42.8739 6 51.4424M21.8246 6.67578C21.8233 34.9432 21.8862 42.8735 37.7139 51.4418M21.8258 57.6702L21.8258 6.67578C21.8871 33.8586 20.3861 45.7094 12.9796 55.985M21.8468 6.67578C21.7855 33.8182 23.2865 45.6514 30.6928 55.9117" stroke="white" stroke-width="12" stroke-linecap="round"/>
<path d="M21.8876 6.67578C21.8906 34.9435 21.8282 42.8739 6 51.4424M21.8246 6.67578C21.8233 34.9432 21.8862 42.8735 37.7139 51.4418M21.8258 57.6702L21.8258 6.67578C21.8871 33.8586 20.3861 45.7094 12.9796 55.985M21.8468 6.67578C21.7855 33.8182 23.2865 45.6514 30.6928 55.9117" stroke="black" stroke-width="5" stroke-linecap="round"/>
</svg>
